<svg width="14" height="8" viewBox="0 0 14 8" fill="none" xmlns="http://www.w3.org/2000/svg">
<path fill-rule="evenodd" clip-rule="evenodd" d="M4.86941 7.80047C4.61142 8.06316 4.18932 8.06696 3.92664 7.80897L0.532698 4.47563C0.405067 4.35028 0.33317 4.17889 0.33317 4C0.33317 3.82111 0.405067 3.64972 0.532698 3.52437L3.92664 0.191034C4.18932 -0.0669594 4.61142 -0.0631571 4.86941 0.199528C5.1274 0.462212 5.1236 0.884305 4.86092 1.1423L2.63004 3.33333L12.9998 3.33333C13.368 3.33333 13.6665 3.63181 13.6665 4C13.6665 4.36819 13.368 4.66667 12.9998 4.66667L2.63004 4.66667L4.86092 6.8577C5.1236 7.11569 5.1274 7.53779 4.86941 7.80047Z" fill="white"/>
</svg>
